<svg width="16" height="16" viewBox="0 0 16 16" fill="none" xmlns="http://www.w3.org/2000/svg">
<path d="M13.9964 0H2.00449C0.899508 0 0 0.899508 0 2.00449V13.9955C0 15.1005 0.899508 16 2.00449 16H13.9955C15.1005 16 16 15.1005 16 13.9955L16.0008 2.00449C16.0008 0.900342 15.1005 0 13.9964 0ZM15.1097 13.9964C15.1097 14.6111 14.6111 15.1097 13.9964 15.1097H2.00449C1.38978 15.1097 0.89117 14.6111 0.89117 13.9964V2.00449C0.89117 1.38978 1.38978 0.89117 2.00449 0.89117H13.9955C14.6102 0.89117 15.1088 1.38978 15.1088 2.00449L15.1097 13.9964Z" fill="#5A5A5A"/>
<path d="M13.3457 8.27753H11.1542L10.0141 3.96536C9.96066 3.77828 9.8003 3.64464 9.60402 3.63545C9.3902 3.59954 9.22985 3.74236 9.1672 3.92025L6.6549 10.6194L5.92409 8.57066C5.86145 8.39277 5.69275 8.27667 5.50566 8.27667L2.65512 8.27751C2.40539 8.27751 2.20996 8.47378 2.20996 8.72267C2.20996 8.9724 2.40623 9.16782 2.65512 9.16782H5.19414L6.22728 12.0635C6.28992 12.2414 6.45862 12.3575 6.64571 12.3575C6.8328 12.3575 6.99316 12.2414 7.06414 12.0727L9.51379 5.5514L10.3782 8.83877C10.4317 9.03504 10.6096 9.16868 10.8059 9.16868L13.3457 9.16784C13.5955 9.16784 13.7909 8.97157 13.7909 8.72269C13.7909 8.47295 13.5955 8.27753 13.3457 8.27753Z" fill="#5A5A5A"/>
</svg>
