<svg width="18" height="18" viewBox="0 0 18 18" fill="none" xmlns="http://www.w3.org/2000/svg">
<path d="M0.33639 13.0691C0.729041 15.425 2.57506 17.2735 4.92992 17.6626C7.6304 18.1127 10.3696 18.1127 13.0701 17.6626C15.426 17.27 17.2744 15.424 17.6636 13.0691C17.8886 11.7282 18 10.3593 18 9.00067C18 7.64107 17.8863 6.27324 17.6636 4.93224C17.271 2.57634 15.4249 0.727884 13.0701 0.335414C11.7292 0.110373 10.3579 -0.000976562 9.00165 -0.000976562C7.64544 -0.000976562 6.27422 0.112717 4.93322 0.335414C2.57731 0.728064 0.728861 2.57409 0.33639 4.92894C0.114867 6.26982 0 7.63879 0 8.99737C0 10.357 0.113693 11.7283 0.33639 13.0658V13.0691ZM1.52136 5.13058C1.83078 3.27867 3.2795 1.82998 5.13131 1.52063C7.69936 1.09164 10.3036 1.09164 12.8754 1.52063C14.7273 1.83004 16.176 3.27876 16.4854 5.13058C16.6987 6.40581 16.8065 7.70798 16.8065 9.00067C16.8065 10.2934 16.6987 11.5957 16.4854 12.8708C16.1759 14.7227 14.7272 16.1714 12.8754 16.4807C11.6002 16.694 10.298 16.8019 9.00531 16.8019C7.7125 16.8019 6.40678 16.694 5.13161 16.4807C3.27971 16.1713 1.83102 14.7226 1.52166 12.8708C1.30834 11.5955 1.20052 10.2934 1.20052 9.00067C1.20052 7.70798 1.30805 6.40215 1.52136 5.13058Z" fill="#5A5A5A"/>
<path d="M9.00148 12.9015C9.33201 12.9015 9.60158 12.6319 9.60158 12.3014V5.10011C9.60158 4.76957 9.332 4.5 9.00148 4.5C8.67095 4.5 8.40137 4.76958 8.40137 5.10011V12.3014C8.40137 12.6319 8.67095 12.9015 9.00148 12.9015Z" fill="#5A5A5A"/>
<path d="M13.2026 12.9012C13.5332 12.9012 13.8028 12.6316 13.8028 12.3011V7.8003C13.8028 7.46976 13.5332 7.2002 13.2026 7.2002C12.8721 7.2002 12.6025 7.46978 12.6025 7.8003V12.3011C12.6025 12.6317 12.8721 12.9012 13.2026 12.9012Z" fill="#5A5A5A"/>
<path d="M4.80128 12.9017C5.13182 12.9017 5.40139 12.6321 5.40139 12.3016V9.60108C5.40139 9.27055 5.13181 9.00098 4.80128 9.00098C4.47075 9.00098 4.20117 9.27056 4.20117 9.60108V12.3016C4.20117 12.6321 4.47075 12.9017 4.80128 12.9017Z" fill="#5A5A5A"/>
</svg>
