<svg width="82" height="60" viewBox="0 0 82 60" fill="none" xmlns="http://www.w3.org/2000/svg">
<g clip-path="url(#clip0_118_5095)">
<path d="M40.9992 0C22.204 0 6.96777 13.4318 6.96777 30.0002C6.96777 38.5372 11.0125 46.241 17.5047 51.7039C17.4218 54.3087 16.5345 56.8869 14.9829 58.954C17.991 58.8313 20.9377 57.6034 23.2034 55.5762C28.3813 58.3796 34.476 60 40.9992 60C59.7944 60 75.0311 46.5686 75.0311 30.0002C75.0311 13.4318 59.7944 0 40.9992 0ZM62.1507 44.5373C61.5285 45.2362 60.7704 45.794 59.9253 46.175C59.0802 46.556 58.1667 46.7518 57.2434 46.7497H24.7555C23.8322 46.7517 22.9186 46.556 22.0735 46.175C21.2284 45.794 20.4704 45.2361 19.8481 44.5373C16.2967 40.528 14.1804 35.4838 14.1804 30.0002C14.1804 24.5167 16.2963 19.4729 19.8476 15.4631C20.47 14.7642 21.2281 14.2064 22.0733 13.8254C22.9185 13.4444 23.8321 13.2486 24.7555 13.2508H57.2434C58.1773 13.2517 59.1007 13.4534 59.9538 13.843C60.8068 14.2326 61.5706 14.8013 62.1956 15.5123C65.7205 19.5142 67.8194 24.541 67.8194 30.0002C67.8194 35.482 65.7025 40.528 62.1512 44.5373H62.1507Z" fill="white"/>
<path d="M5.34825 30.0002C5.34825 34.1152 6.21893 38.1057 7.93876 41.8755C3.34403 40.3277 -0.000976562 37.2637 -0.000976562 30.0002C-0.000976562 23.1099 3.34268 19.6723 7.93876 18.1245C6.21983 21.8967 5.34825 25.8889 5.34825 30.0002Z" fill="white"/>
<path d="M3.96982 9.2183V18.2121C2.8082 18.9711 1.7869 19.9349 0.953171 21.0586L0.931641 21.0881V9.2183C0.938486 8.81016 1.10154 8.42112 1.38568 8.13497C1.66982 7.84882 2.05231 7.68848 2.45073 7.68848C2.84916 7.68848 3.23165 7.84882 3.51579 8.13497C3.79993 8.42112 3.96298 8.81016 3.96982 9.2183Z" fill="white"/>
<path d="M76.653 30.0002C76.653 34.1152 75.7823 38.1057 74.0625 41.8755C78.6572 40.3277 82.0022 37.2637 82.0022 30.0002C82.0022 23.1099 78.659 19.6723 74.0625 18.1245C75.7814 21.8967 76.653 25.8889 76.653 30.0002Z" fill="white"/>
<path d="M78.0303 9.2183V18.2121C79.1919 18.9711 80.2132 19.9349 81.0469 21.0586C81.0541 21.0683 81.0617 21.0779 81.0685 21.0881V9.2183C81.0616 8.81016 80.8986 8.42112 80.6144 8.13497C80.3303 7.84882 79.9478 7.68848 79.5494 7.68848C79.1509 7.68848 78.7685 7.84882 78.4843 8.13497C78.2002 8.42112 78.0371 8.81016 78.0303 9.2183Z" fill="white"/>
<path d="M33.7685 29.0695C32.7816 30.6293 31.3534 29.0695 28.3735 29.0695C25.3936 29.0695 23.9672 30.6293 22.9785 29.0695C22.0217 27.5603 24.662 23.8359 28.3735 23.8359C32.085 23.8359 34.7253 27.5603 33.7685 29.0695Z" fill="white"/>
<path d="M59.0226 29.0695C58.0357 30.6293 56.6075 29.0695 53.6271 29.0695C50.6468 29.0695 49.2208 30.6293 48.2326 29.0695C47.2753 27.5603 49.9156 23.8359 53.6271 23.8359C57.3386 23.8359 59.9789 27.5603 59.0226 29.0695Z" fill="white"/>
<path d="M40.9996 36.1639C38.9196 36.1639 37.5456 34.4745 37.49 34.4024C37.416 34.3097 37.3606 34.203 37.3269 34.0884C37.2932 33.9738 37.2818 33.8535 37.2935 33.7344C37.3052 33.6153 37.3396 33.4997 37.3949 33.3943C37.4501 33.2888 37.5251 33.1955 37.6156 33.1197C37.7061 33.044 37.8102 32.9872 37.9221 32.9526C38.0339 32.9181 38.1513 32.9065 38.2676 32.9184C38.3839 32.9304 38.4967 32.9657 38.5996 33.0223C38.7026 33.0789 38.7936 33.1557 38.8676 33.2484C38.8734 33.2553 39.7746 34.3408 40.9996 34.3408C42.2247 34.3408 43.1254 33.2553 43.1344 33.2447C43.2086 33.1523 43.2998 33.0757 43.4029 33.0194C43.506 32.963 43.6189 32.9281 43.7352 32.9164C43.8514 32.9048 43.9688 32.9167 44.0806 32.9516C44.1924 32.9864 44.2963 33.0435 44.3866 33.1195C44.4768 33.1955 44.5516 33.289 44.6066 33.3946C44.6615 33.5002 44.6957 33.6159 44.707 33.735C44.7184 33.8541 44.7067 33.9744 44.6727 34.0889C44.6387 34.2034 44.583 34.3099 44.5088 34.4024C44.4536 34.4745 43.0797 36.1639 40.9996 36.1639Z" fill="white"/>
</g>
<defs>
<clipPath id="clip0_118_5095">
<rect width="82" height="60" fill="white"/>
</clipPath>
</defs>
</svg>
