<svg width="17" height="20" viewBox="0 0 17 20" fill="none" xmlns="http://www.w3.org/2000/svg">
<path d="M15.9693 0.0693537C15.7899 0.0254456 15.5993 0.0562746 15.4433 0.156237C15.2863 0.256201 15.178 0.415946 15.1425 0.598141L13.8869 6.24839H2.64615L1.39054 0.617752C1.36812 0.421564 1.26348 0.244058 1.1028 0.130073C0.94211 0.0151616 0.740322 -0.0259437 0.546934 0.0160966C0.354481 0.059072 0.189121 0.181457 0.0910395 0.352409C-0.00612094 0.524309 -0.0266747 0.728902 0.0349843 0.916693L1.39057 7.04527V17.4489C1.39057 18.8577 2.53313 20.0003 3.94197 20.0003H12.5921H12.5911C13.2684 20.0003 13.9168 19.7313 14.3951 19.2529C14.8735 18.7746 15.1425 18.1253 15.1425 17.4489V7.04527L16.4981 0.936305C16.5514 0.751325 16.5252 0.551394 16.4252 0.386968C16.3243 0.221608 16.1589 0.106711 15.9693 0.0693537ZM13.7476 17.4489C13.7476 18.087 13.2301 18.6046 12.5911 18.6046H3.94194C3.30292 18.6046 2.78537 18.087 2.78537 17.4489V7.6432H13.7467L13.7476 17.4489ZM4.48004 11.0317C4.48004 10.8476 4.55384 10.6711 4.68463 10.5412C4.81543 10.4123 4.99294 10.3413 5.17698 10.3441H11.356C11.5541 10.3198 11.7521 10.3824 11.9016 10.5141C12.0511 10.6468 12.1361 10.8364 12.1361 11.0364C12.1361 11.2363 12.0511 11.4259 11.9016 11.5586C11.7521 11.6903 11.5541 11.7529 11.356 11.7286H5.17698C4.992 11.7286 4.8145 11.6557 4.6837 11.525C4.5529 11.3942 4.48004 11.2167 4.48004 11.0317Z" fill="#5A5A5A"/>
</svg>
