<svg width="18" height="19" viewBox="0 0 18 19" fill="none" xmlns="http://www.w3.org/2000/svg">
<path d="M9.08514 18.0842C8.9346 18.0842 8.78928 18.0254 8.68048 17.9166L0.667834 9.90423C0.532203 9.76861 0.473336 9.57411 0.511337 9.38708C0.549344 9.20003 0.679013 9.04354 0.856377 8.97126L4.56909 7.45479C5.36872 5.67452 7.11483 4.53963 9.08517 4.53963C10.247 4.53963 11.3171 4.94056 12.1622 5.61197L16.6932 1.08271C16.9168 0.859148 17.2789 0.859148 17.5018 1.08271C17.7253 1.30627 17.7253 1.66843 17.5018 1.89125L12.9731 6.4228C13.6445 7.26785 14.0455 8.33794 14.0455 9.49973C14.0455 11.47 12.9105 13.2159 11.1323 14.0172L9.61576 17.7297C9.52932 17.9414 9.31395 18.0867 9.08517 18.0844L9.08514 18.0842ZM2.08533 9.70372L8.88101 16.4991L10.016 13.7217L4.86499 8.57093L2.08533 9.70372ZM5.68549 7.77141L10.8157 12.9014C12.0937 12.2561 12.9009 10.9573 12.9009 9.49959C12.9009 7.39521 11.1898 5.6842 9.08533 5.6842C7.62768 5.6842 6.3286 6.49125 5.68549 7.77141Z" fill="white"/>
</svg>
