<svg width="74" height="74" viewBox="0 0 74 74" fill="none" xmlns="http://www.w3.org/2000/svg">
<path d="M49.7149 27.5641L40.2792 36.9997L49.7149 46.4354C49.9319 46.6497 50.1042 46.905 50.2218 47.1865C50.3393 47.468 50.3999 47.77 50.3999 48.075C50.3999 48.38 50.3393 48.682 50.2218 48.9635C50.1042 49.2449 49.9319 49.5002 49.7149 49.7146C49.2798 50.1491 48.6901 50.3932 48.0752 50.3932C47.4604 50.3932 46.8706 50.1491 46.4356 49.7146L37 40.279L27.5644 49.7146C27.1293 50.1491 26.5396 50.3932 25.9247 50.3932C25.3099 50.3932 24.7202 50.1491 24.2851 49.7146C24.0681 49.5002 23.8958 49.2449 23.7782 48.9635C23.6606 48.682 23.6001 48.38 23.6001 48.075C23.6001 47.77 23.6606 47.468 23.7782 47.1865C23.8958 46.905 24.0681 46.6497 24.2851 46.4354L33.7207 36.9997L24.2851 27.5641C23.8753 27.1243 23.6521 26.5425 23.6627 25.9414C23.6733 25.3403 23.9169 24.7668 24.342 24.3417C24.7671 23.9166 25.3406 23.6731 25.9417 23.6625C26.5428 23.6519 27.1245 23.875 27.5644 24.2849L37 33.7205L46.4356 24.2849C46.8754 23.875 47.4572 23.6519 48.0583 23.6625C48.6594 23.6731 49.2329 23.9166 49.658 24.3417C50.0831 24.7668 50.3266 25.3403 50.3372 25.9414C50.3478 26.5425 50.1247 27.1243 49.7149 27.5641ZM74 27.0691V46.9303C73.9918 54.1071 71.1372 60.9875 66.0625 66.0622C60.9878 71.137 54.1073 73.9915 46.9306 73.9997H27.0694C19.8927 73.9915 13.0122 71.137 7.93748 66.0622C2.86276 60.9875 0.00818795 54.1071 0 46.9303V27.0691C0.00818795 19.8924 2.86276 13.012 7.93748 7.93724C13.0122 2.86252 19.8927 0.00794381 27.0694 -0.000244141H46.9306C54.1073 0.00794381 60.9878 2.86252 66.0625 7.93724C71.1372 13.012 73.9918 19.8924 74 27.0691ZM69.3595 27.0691C69.3513 21.1231 66.9857 15.423 62.7812 11.2185C58.5767 7.01408 52.8766 4.64841 46.9306 4.64022H27.0694C21.1234 4.64841 15.4233 7.01408 11.2188 11.2185C7.01432 15.423 4.64865 21.1231 4.64047 27.0691V46.9303C4.64865 52.8763 7.01432 58.5765 11.2188 62.7809C15.4233 66.9854 21.1234 69.3511 27.0694 69.3593H46.9306C52.8766 69.3511 58.5767 66.9854 62.7812 62.7809C66.9857 58.5765 69.3513 52.8763 69.3595 46.9303V27.0691Z" fill="white"/>
</svg>
