<svg width="21" height="22" viewBox="0 0 21 22" fill="none" xmlns="http://www.w3.org/2000/svg">
<path d="M18.5336 6.52842L12.4355 1.78888C11.0229 0.692768 9.04681 0.692768 7.63421 1.78888L1.5361 6.52842C0.578934 7.27718 0 8.45048 0 9.6701V17.065C0 19.2572 1.76768 21.0326 3.93675 21.0326H16.133C18.302 21.0326 20.0697 19.2495 20.0697 17.065V9.6701C20.0697 8.45048 19.4985 7.26946 18.5336 6.52842ZM18.5259 17.065C18.5259 18.4004 17.4529 19.4888 16.133 19.4888H3.93675C2.61678 19.4888 1.54382 18.4004 1.54382 17.065V9.6701C1.54382 8.92135 1.89118 8.20347 2.47784 7.74032L8.57594 3.00078C9.00821 2.66886 9.51767 2.49904 10.0271 2.49904C10.5366 2.49904 11.0538 2.66886 11.4783 3.00078L17.5764 7.74032C18.1631 8.19575 18.5104 8.91363 18.5104 9.6701V17.065H18.5259Z" fill="#5A5A5A"/>
<path d="M13.123 15.6289H6.94769C6.52314 15.6289 6.17578 15.9763 6.17578 16.4008C6.17578 16.8254 6.52314 17.1727 6.94769 17.1727H13.123C13.5475 17.1727 13.8949 16.8254 13.8949 16.4008C13.8949 15.9763 13.5475 15.6289 13.123 15.6289Z" fill="#5A5A5A"/>
</svg>
