<svg width="18" height="18" viewBox="0 0 18 18" fill="none" xmlns="http://www.w3.org/2000/svg">
<path d="M13.7839 1.05372C13.103 0.372734 12.1993 0 11.2369 0H6.76305C5.79959 0 4.89704 0.375075 4.21605 1.05372L1.05372 4.21605C0.372734 4.89704 0 5.80073 0 6.76305V11.2369C0 12.2004 0.375075 13.103 1.05372 13.7839L4.21605 16.9463C4.89704 17.6273 5.80073 18 6.76305 18H11.2369C12.2004 18 13.103 17.6249 13.7839 16.9463L16.9463 13.7839C17.6273 13.103 18 12.1993 18 11.2369V6.76305C18 5.79959 17.6249 4.89704 16.9463 4.21605L13.7839 1.05372ZM12.9342 16.1011C12.4806 16.5547 11.8781 16.8032 11.2358 16.8032H6.76188C6.11957 16.8032 5.51711 16.5547 5.06348 16.1011L4.08244 15.1201L4.30748 14.7216C5.26158 13.0443 7.0596 12.0035 8.99712 12.0035C10.9358 12.0035 12.7209 13.0443 13.6844 14.7216L13.9129 15.1201L12.9319 16.1011H12.9342ZM6.60021 8.40159C6.60021 7.07827 7.67737 6.00111 9.00069 6.00111C9.96652 6.00111 10.8374 6.5778 11.2125 7.46858C11.3391 7.76278 11.4012 8.07807 11.4012 8.40159C11.4012 9.72491 10.324 10.8021 9.00069 10.8021C7.67737 10.8021 6.60021 9.72491 6.60021 8.40159ZM16.8022 11.2404C16.8022 11.8827 16.5538 12.4852 16.1002 12.9388L14.8214 14.2176L14.41 13.6292C13.7946 12.7501 12.9671 12.0269 12.0189 11.5381L11.3707 11.2053L11.8243 10.6321C12.3341 9.98744 12.6049 9.21853 12.6049 8.40273C12.6049 7.9163 12.5088 7.44512 12.3224 7.00088C11.7587 5.66585 10.4564 4.80201 9.00408 4.80201C7.01735 4.80201 5.40336 6.416 5.40336 8.40273C5.40336 9.21616 5.6706 9.9839 6.17694 10.6262L6.63054 11.1994L5.98235 11.5323C5.02474 12.0211 4.19958 12.7443 3.59123 13.621L3.17982 14.2117L1.90457 12.9365C1.45097 12.4829 1.20249 11.8804 1.20249 11.2381V6.76419C1.20249 6.12188 1.45097 5.51942 1.90457 5.06579L5.0669 1.90346C5.5205 1.44986 6.12296 1.20138 6.7653 1.20138H11.2392C11.8815 1.20138 12.484 1.44987 12.9376 1.90346L16.0999 5.06579C16.5535 5.51939 16.802 6.12185 16.802 6.76419L16.8022 11.2404Z" fill="#5A5A5A"/>
</svg>
