<svg width="36" height="36" viewBox="0 0 36 36" fill="none" xmlns="http://www.w3.org/2000/svg">
<path d="M28.1992 1.02344C29.3946 1.02344 30.5193 1.62083 31.1895 2.62598L35.1475 8.5625C35.5513 9.16827 35.8111 9.84958 35.9189 10.5605C35.953 10.8084 35.9717 11.0591 35.9717 11.3115V31.9053C35.9717 32.0438 35.9658 32.1813 35.9521 32.3164C35.7465 34.0968 34.2224 35.4919 32.3896 35.4922H5.09375C3.12227 35.492 1.50811 33.8778 1.50781 31.9062V11.3115C1.50781 10.3323 1.79256 9.37903 2.33691 8.5625L6.29395 2.62598C6.96407 1.62085 8.08883 1.0235 9.28418 1.02344H28.1992ZM9.28418 0.515625L9.0293 0.523438C7.76102 0.6026 6.58857 1.27095 5.87207 2.3457L1.91504 8.28223L1.70312 8.62598C1.24062 9.44538 1 10.368 1 11.3115V31.9062L1.00488 32.1152C1.11135 34.2014 2.79863 35.8887 4.88477 35.9951L5.09375 36H4.58203C2.33038 35.9998 0.488281 34.157 0.488281 31.9053V11.3115C0.488281 10.2334 0.801847 9.182 1.40234 8.28125L5.36035 2.34473C6.12462 1.19834 7.40771 0.515626 8.77246 0.515625H9.28418ZM3.22266 10.9277V11.4346H3.21777V31.9053C3.21777 31.9697 3.22269 32.0336 3.23145 32.0957C3.32714 33.0376 4.12741 33.7771 5.09375 33.7773H32.3896C33.4198 33.777 34.2604 32.9364 34.2607 31.9062V10.9277H3.22266ZM33.7539 11.4336V31.9062L33.7471 32.0449C33.6815 32.6851 33.1685 33.1981 32.5283 33.2637L32.3896 33.2695H31.8975C32.6391 33.2589 33.2422 32.6493 33.2422 31.9053V11.4346H3.72852V11.4336H33.7539ZM9.28418 2.73926C8.66852 2.73932 8.07143 3.05226 7.72949 3.57812L3.96875 9.21094H17.8838V2.73926H9.28418ZM19.5996 2.73926V3.24609H19.5947V8.70508H19.5996V9.21094H33.5146L29.7539 3.57812C29.4119 3.05216 28.815 2.73927 28.1992 2.73926H19.5996ZM17.377 3.24609V8.70508H16.8652V3.24609H17.377ZM28.1992 3.24609L28.3682 3.25586C28.7565 3.30569 29.1172 3.52623 29.332 3.86035L32.5664 8.70508H32.0547L28.8203 3.85938C28.5746 3.4775 28.1377 3.24609 27.6875 3.24609H28.1992Z" fill="#6042FF"/>
<path d="M12.7715 28.0654C13.3818 28.0656 13.8826 28.5664 13.8828 29.1768C13.8827 29.7872 13.3819 30.2879 12.7715 30.2881H7.3125C6.70193 30.2881 6.20133 29.7873 6.20117 29.1768C6.20143 28.5663 6.70199 28.0654 7.3125 28.0654H12.7715ZM14.1299 29.29C14.1237 29.3642 14.1114 29.4364 14.0938 29.5068C14.1094 29.4446 14.1222 29.3807 14.1289 29.3154L14.1299 29.29ZM7.17285 27.8193C7.10555 27.8263 7.0397 27.84 6.97559 27.8564C6.99641 27.8511 7.0169 27.8442 7.03809 27.8398L7.17285 27.8193ZM6.02637 29.6279C6.0176 29.6031 6.0093 29.5782 6.00195 29.5527C6.00929 29.5782 6.01761 29.6031 6.02637 29.6279Z" fill="#6042FF"/>
</svg>
