<svg width="19" height="22" viewBox="0 0 19 22" fill="none" xmlns="http://www.w3.org/2000/svg">
<path d="M18 11.0001C18 9.6308 17.9952 8.66244 17.9219 7.90728C17.85 7.16655 17.7186 6.71939 17.5176 6.37114C17.3165 6.02292 16.9951 5.68553 16.3896 5.25296C15.9267 4.92224 15.3403 4.5649 14.5762 4.11819L13.75 3.63869C12.5641 2.95402 11.7228 2.47431 11.0322 2.16017C10.4394 1.89053 10.0187 1.77224 9.65332 1.74708L9.5 1.7422C9.09793 1.74221 8.64513 1.8521 7.96777 2.16017C7.44984 2.39575 6.84714 2.72463 6.07812 3.1631L5.25 3.63869C4.06413 4.32336 3.22772 4.81191 2.61035 5.25296C2.00492 5.68553 1.68348 6.02292 1.48242 6.37114C1.28135 6.71939 1.15002 7.16655 1.07812 7.90728C1.00485 8.66244 1 9.63081 1 11.0001C1 12.3694 1.00485 13.3377 1.07812 14.0929C1.15001 14.8336 1.28138 15.2808 1.48242 15.629C1.68346 15.9772 2.00495 16.3146 2.61035 16.7472C3.22771 17.1882 4.06415 17.6768 5.25 18.3615L6.07812 18.8371C6.84717 19.2755 7.44985 19.6044 7.96777 19.84C8.64518 20.1481 9.0979 20.258 9.5 20.258C9.9021 20.258 10.3548 20.1481 11.0322 19.84C11.7229 19.5259 12.5641 19.0461 13.75 18.3615L14.5762 17.882C15.3403 17.4353 15.9267 17.0779 16.3896 16.7472C16.995 16.3146 17.3165 15.9772 17.5176 15.629C17.7186 15.2808 17.85 14.8336 17.9219 14.0929C17.9952 13.3377 18 12.3694 18 11.0001ZM18.998 11.9552C18.9742 16.4385 18.6464 16.6894 14.25 19.2277L13.4219 19.7033C9.78701 21.7762 9.21299 21.7762 5.57812 19.7033L4.75 19.2277C0.35357 16.6894 0.0257737 16.4385 0.00195312 11.9552L0 11.0001C5.99738e-07 5.92361 0.0532041 5.51419 3.92383 3.25197L4.75 2.77248C7.09457 1.41882 8.29745 0.742221 9.5 0.742188L9.72559 0.75C10.8573 0.829213 12.0517 1.50324 14.25 2.77248C18.9395 5.47998 19 5.58513 19 11.0001L18.998 11.9552Z" fill="#5A5A5A"/>
<path d="M9.24056 11.7944C9.63059 11.944 10.0049 12.1302 10.3572 12.3514C10.6969 12.5153 10.8667 12.9037 10.7598 13.2681C10.6811 13.5943 10.4484 13.8601 10.1385 13.9795C9.72176 14.1545 9.24684 14.1163 8.8615 13.8776L8.01381 13.3365L8.01538 13.3381C7.7323 13.1567 7.35957 13.2426 7.18186 13.5291C7.00257 13.814 7.08749 14.1927 7.37058 14.3725L8.2167 14.912C8.42745 15.0457 8.65708 15.1492 8.89768 15.216V16.1311C8.89768 16.4685 9.16818 16.7422 9.50159 16.7422C9.835 16.7422 10.1055 16.4685 10.1055 16.1311V15.2606C10.2769 15.2256 10.4452 15.173 10.6072 15.1046C11.2835 14.8341 11.7836 14.2405 11.9408 13.5227C12.1516 12.6777 11.7867 11.7928 11.046 11.3473C10.6245 11.0751 10.1762 10.8475 9.70761 10.6677C8.37396 10.1012 8.04684 9.84494 8.28116 9.12399C8.39282 8.8248 8.63345 8.59245 8.9354 8.49378C9.34115 8.34896 9.79095 8.39511 10.159 8.62109L10.9988 9.15581C11.2803 9.33565 11.6546 9.24971 11.8323 8.96484C12.0084 8.67839 11.9235 8.30122 11.642 8.12139L10.8053 7.58666L10.8038 7.58826C10.5867 7.45458 10.3524 7.35432 10.1055 7.29225V6.3533C10.1055 6.01592 9.83498 5.74219 9.50157 5.74219C9.16816 5.74219 8.89765 6.01592 8.89765 6.3533V7.25562C8.77184 7.27631 8.64917 7.30496 8.52807 7.34315C7.87383 7.56595 7.35957 8.08317 7.13468 8.74203C6.5182 10.639 8.15697 11.3361 9.24056 11.7944Z" fill="#5A5A5A"/>
</svg>
