<svg width="28" height="27" viewBox="0 0 28 27" fill="none" xmlns="http://www.w3.org/2000/svg">
<path d="M2.02542 0.987805C2.02542 0.44226 1.58316 0 1.03761 0C0.492065 0 0.0498054 0.44226 0.0498054 0.987805V18.1821C0.049779 19.9833 0.0497528 21.4351 0.203271 22.577C0.362663 23.7625 0.70364 24.7606 1.49641 25.5535C2.28919 26.3462 3.28736 26.6872 4.47287 26.8466C5.61473 27 7.06657 27 8.86778 27H26.062C26.6075 27 27.0498 26.5577 27.0498 26.0122C27.0498 25.4667 26.6075 25.0244 26.062 25.0244H8.94005C7.0495 25.0244 5.73096 25.0223 4.73611 24.8886C3.76968 24.7586 3.25789 24.521 2.89338 24.1564C2.52887 23.7919 2.2912 23.2802 2.16127 22.3137C2.02751 21.3188 2.02542 20.0003 2.02542 18.1098V0.987805Z" fill="#6042FF"/>
<path d="M24.7851 9.58863C25.1709 9.20287 25.1709 8.57742 24.7851 8.19166C24.3993 7.8059 23.774 7.8059 23.3882 8.19166L17.1993 14.3806C17.0952 14.4847 17.0104 14.5694 16.9356 14.6415C16.8705 14.5607 16.7968 14.466 16.7066 14.3499L13.9473 10.8023C13.7513 10.5501 13.5452 10.2849 13.3432 10.0897C13.1107 9.86499 12.7569 9.60526 12.2553 9.58725C11.7536 9.56924 11.3822 9.80293 11.1342 10.0104C10.9187 10.1906 10.6941 10.4404 10.4805 10.6778L5.57194 16.1318C5.20699 16.5373 5.23986 17.1619 5.64537 17.5269C6.05087 17.8918 6.67545 17.8589 7.0404 17.4534L11.9147 12.0376C12.0182 11.9224 12.1029 11.8284 12.1777 11.7482C12.2464 11.8335 12.3243 11.9335 12.4192 12.0557L15.1774 15.602C15.3638 15.8418 15.5616 16.0964 15.7562 16.2851C15.9815 16.5038 16.3205 16.7541 16.8023 16.784C17.2841 16.8141 17.6514 16.6077 17.9022 16.4187C18.1186 16.2555 18.3465 16.0275 18.5611 15.8126L24.7851 9.58863Z" fill="#6042FF"/>
</svg>
