<svg width="19" height="22" viewBox="0 0 19 22" fill="none" xmlns="http://www.w3.org/2000/svg">
<path d="M9.5 1.3418C9.98181 1.34179 10.4942 1.47564 11.1982 1.7959C11.9102 2.11976 12.7697 2.61043 13.9502 3.29199C15.1307 3.97353 15.9856 4.47304 16.6221 4.92773C17.2513 5.37727 17.6234 5.75374 17.8643 6.1709C18.1052 6.58817 18.2456 7.09918 18.3203 7.86914C18.3958 8.64762 18.4004 9.63716 18.4004 11C18.4004 12.3631 18.3959 13.3533 18.3203 14.1318C18.2456 14.9015 18.1051 15.4119 17.8643 15.8291C17.6233 16.2464 17.2515 16.6236 16.6221 17.0732C15.9856 17.5279 15.1306 18.0265 13.9502 18.708C12.7697 19.3896 11.9102 19.8802 11.1982 20.2041C10.4941 20.5244 9.98181 20.6582 9.5 20.6582C9.01819 20.6582 8.50591 20.5244 7.80176 20.2041C7.08975 19.8802 6.23028 19.3895 5.0498 18.708C3.86936 18.0265 3.01439 17.5279 2.37793 17.0732C1.74849 16.6236 1.37666 16.2464 1.13574 15.8291C0.894903 15.4119 0.754405 14.9015 0.679688 14.1318C0.604143 13.3533 0.599609 12.3631 0.599609 11C0.59961 9.63716 0.604175 8.64762 0.679688 7.86914C0.754401 7.09918 0.894823 6.58817 1.13574 6.1709C1.37661 5.75374 1.74875 5.37727 2.37793 4.92773C3.01441 4.47304 3.86933 3.97354 5.0498 3.29199C6.23025 2.61046 7.08973 2.11976 7.80176 1.7959C8.50588 1.47563 9.01822 1.34181 9.5 1.3418ZM9.5 6.29004C8.88151 6.29003 8.26868 6.41177 7.69727 6.64844C7.12593 6.88511 6.60724 7.23264 6.16992 7.66992C5.7326 8.10722 5.38515 8.62594 5.14844 9.19727C4.91173 9.76869 4.79007 10.3815 4.79004 11C4.79002 11.6186 4.91174 12.2313 5.14844 12.8027C5.38514 13.3742 5.73257 13.8937 6.16992 14.3311C6.60712 14.7682 7.12606 15.1149 7.69727 15.3516C8.2687 15.5883 8.8815 15.71 9.5 15.71C10.1185 15.7099 10.7313 15.5883 11.3027 15.3516C11.8739 15.1149 12.3929 14.7682 12.8301 14.3311C13.2674 13.8937 13.6149 13.3741 13.8516 12.8027C14.0883 12.2313 14.21 11.6185 14.21 11C14.2099 9.75092 13.7133 8.55318 12.8301 7.66992C11.9468 6.78672 10.7491 6.29009 9.5 6.29004Z" stroke="#5A5A5A" stroke-width="1.2"/>
</svg>
