<svg width="33" height="30" viewBox="0 0 33 30" fill="none" xmlns="http://www.w3.org/2000/svg">
<path d="M29.5422 8.71376H27.473C26.4249 3.74802 21.9082 0 16.5108 0C11.1135 0 6.59676 3.74802 5.54322 8.71376H3.47397C1.55599 8.71376 0 10.2267 0 12.0875V15.8513C0 17.7122 1.56139 19.2251 3.47397 19.2251H6.12132C6.56974 19.2251 6.93173 18.8719 6.93173 18.4344V10.9172C6.93173 5.767 11.2269 1.57617 16.5054 1.57617C21.7839 1.57617 26.0791 5.767 26.0791 10.9172V17.0005C26.0791 21.8397 22.2323 25.8672 17.3698 26.2941C17.0025 25.1186 15.8841 24.2646 14.5604 24.2646C12.9396 24.2646 11.6213 25.5509 11.6213 27.1323C11.6213 28.7138 12.9396 30 14.5604 30C15.9165 30 17.0565 29.0986 17.3969 27.8756C22.3728 27.4908 26.4573 23.8904 27.4622 19.2251H29.5422C31.4494 19.2251 33 17.7122 33 15.8513V12.0875C33 10.2267 31.4494 8.71376 29.5422 8.71376ZM5.3109 17.6489H3.47397C2.45285 17.6489 1.62083 16.8424 1.62083 15.8566V12.0928C1.62083 11.1017 2.45285 10.3005 3.47397 10.3005H5.3109V17.6542V17.6489ZM14.5604 28.4238C13.831 28.4238 13.2421 27.8492 13.2421 27.1376C13.2421 26.4259 13.831 25.8513 14.5604 25.8513C15.2898 25.8513 15.8787 26.4417 15.8787 27.1376C15.8787 27.8334 15.2898 28.4238 14.5604 28.4238ZM31.3792 15.8566C31.3792 16.8477 30.5526 17.6489 29.5422 17.6489H27.7053V10.2952H29.5422C30.558 10.2952 31.3792 11.1017 31.3792 12.0875V15.8513V15.8566Z" fill="#6042FF"/>
</svg>
