<svg width="22" height="20" viewBox="0 0 22 20" fill="none" xmlns="http://www.w3.org/2000/svg">
<path d="M19.6948 5.80917H18.3153C17.6166 2.49868 14.6054 0 11.0072 0C7.40897 0 4.39784 2.49868 3.69548 5.80917H2.31598C1.03733 5.80917 0 6.81778 0 8.05834V10.5676C0 11.8081 1.04093 12.8167 2.31598 12.8167H4.08088C4.37983 12.8167 4.62115 12.5813 4.62115 12.2896V7.27816C4.62115 3.84467 7.48461 1.05078 11.0036 1.05078C14.5226 1.05078 17.3861 3.84467 17.3861 7.27816V11.3337C17.3861 14.5598 14.8215 17.2448 11.5799 17.5294C11.335 16.7457 10.5894 16.1764 9.70694 16.1764C8.62639 16.1764 7.74754 17.0339 7.74754 18.0882C7.74754 19.1425 8.62639 20 9.70694 20C10.611 20 11.371 19.399 11.5979 18.5837C14.9152 18.3272 17.6382 15.9269 18.3081 12.8167H19.6948C20.9663 12.8167 22 11.8081 22 10.5676V8.05834C22 6.81778 20.9663 5.80917 19.6948 5.80917ZM3.5406 11.7659H2.31598C1.63523 11.7659 1.08055 11.2283 1.08055 10.5711V8.06185C1.08055 7.40116 1.63523 6.86698 2.31598 6.86698H3.5406V11.7695V11.7659ZM9.70694 18.9492C9.22069 18.9492 8.82809 18.5662 8.82809 18.0917C8.82809 17.6173 9.22069 17.2342 9.70694 17.2342C10.1932 17.2342 10.5858 17.6278 10.5858 18.0917C10.5858 18.5556 10.1932 18.9492 9.70694 18.9492ZM20.9195 10.5711C20.9195 11.2318 20.3684 11.7659 19.6948 11.7659H18.4702V6.86347H19.6948C20.372 6.86347 20.9195 7.40116 20.9195 8.05834V10.5676V10.5711Z" fill="#5A5A5A"/>
</svg>
