<svg width="38" height="26" viewBox="0 0 38 26" fill="none" xmlns="http://www.w3.org/2000/svg">
<path fill-rule="evenodd" clip-rule="evenodd" d="M13.6535 0.806641C19.8356 0.806641 22.9545 8.57325 18.5765 13.1014C14.2001 17.628 6.68944 14.4022 6.68944 8.00952C6.68944 4.03246 9.80816 0.806641 13.6535 0.806641ZM24.538 18.9545C28.6937 17.2903 33.4385 18.8273 35.9365 22.6528C36.6504 23.7449 38.2515 22.6251 37.5408 21.5347C34.5308 16.9251 28.8497 15.09 23.8431 17.0929C22.6581 17.5672 23.3529 19.4288 24.538 18.9545ZM27.9987 3.82182C25.0076 3.82182 22.5806 6.33031 22.5806 9.42573C22.5806 14.4004 28.4223 16.909 31.828 13.3865C35.2335 9.8642 32.8067 3.82182 27.9987 3.82182ZM30.4602 6.8796C31.8187 8.28463 31.8187 10.5649 30.4602 11.9699C28.2729 14.2322 24.5177 12.6218 24.5177 9.42385C24.5177 6.2275 28.2731 4.61705 30.4602 6.8796ZM2.68326 24.747C7.94036 16.7096 19.3861 16.7309 24.6198 24.747C25.3336 25.8391 26.9348 24.7193 26.2241 23.6289C20.2166 14.4294 7.08775 14.4294 1.08067 23.6289C0.368375 24.7193 1.97249 25.8391 2.68326 24.747ZM17.2067 4.33176C14.0487 1.06535 8.62578 3.38966 8.62578 8.00894C8.62578 12.6264 14.0483 14.9527 17.2067 11.6861C19.1703 9.65519 19.1703 6.36261 17.2067 4.33176Z" fill="#6042FF"/>
</svg>
